<svg width="96" height="96" viewBox="0 0 96 96" xmlns="http://www.w3.org/2000/svg" xmlns:xlink="http://www.w3.org/1999/xlink">
    <defs>
        <path id="hj0vw2hs4a" d="M0 0h96v96H0z"/>
    </defs>
    <g fill="none" fill-rule="evenodd">
        <mask id="h45mfxa9cb" fill="#fff">
            <use xlink:href="#hj0vw2hs4a"/>
        </mask>
        <g mask="url(#h45mfxa9cb)">
            <path d="M58.63 8.562c12.7 0 22.998 10.297 22.998 22.997S71.331 54.556 58.631 54.556c-1.829 0-3.608-.213-5.313-.617a23.043 23.043 0 0 1-5.313.617c-12.7 0-22.997-10.297-22.997-22.997S35.305 8.562 48.005 8.562c1.83 0 3.608.213 5.314.617a23.043 23.043 0 0 1 5.312-.617z" stroke="#1860D8" stroke-width="2"/>
            <path d="M71.003 31.559c0 12.7-10.298 22.997-22.998 22.997-12.7 0-22.997-10.297-22.997-22.997S35.305 8.562 48.005 8.562s22.998 10.297 22.998 22.997zM8 59.53h12.923V87.44H8z" stroke="#1860D8" stroke-width="2"/>
            <path d="M20.531 65.774s.678.064 1.196-.349c2.837-2.275 11.864-5.535 20.944-.677 4 2.138 9.398 1.312 15.081 1.482 4.308.127 8.181 1.915 8.657 7.312.053.625-.476 1.154-1.1 1.154H48.09" stroke="#1860D8" stroke-width="2" stroke-linejoin="round"/>
            <path d="M66.399 71.944s11.927-6.392 14.382-6.89c2.456-.486 5.25-.708 7.208 3.133 0 0-23.114 15.07-26.882 17.357-3.767 2.296-8.138 2.318-13.6 1.069-6.307-1.45-17.45-5.25-19.99-5.25-2.7 0-6.594 2.953-6.594 2.953" stroke="#1860D8" stroke-width="2" stroke-linejoin="round"/>
            <path stroke="#1860D8" stroke-width="2" d="M47.995 15.568v3.302M47.995 44.259v3.302M54.228 26.49c0-2.477-2.106-5.366-6.011-5.366-3.905 0-6.551 2.402-6.551 5.366 0 3.63 3.768 4.35 6.551 4.815 2.445.413 6.646 1.005 6.646 5.43 0 4.423-4.35 5.248-6.646 5.248-2.297 0-7.08-1.259-7.08-5.99"/>
            <path d="M54.228 26.49c0-2.477-2.106-5.366-6.011-5.366-3.905 0-6.551 2.402-6.551 5.366 0 3.63 3.768 4.35 6.551 4.815 2.445.413 6.646 1.005 6.646 5.43 0 4.423-4.35 5.248-6.646 5.248-2.297 0-7.08-1.259-7.08-5.99" stroke="#1860D8" stroke-width="2"/>
        </g>
    </g>
</svg>
