<?xml version="1.0" encoding="UTF-8"?>
<svg width="22px" height="24px" viewBox="0 0 22 24" version="1.1" xmlns="http://www.w3.org/2000/svg" xmlns:xlink="http://www.w3.org/1999/xlink">
    <title>Icons/Bell</title>
    <g id="Project-Connect-[WIP]" stroke="none" stroke-width="1" fill="none" fill-rule="evenodd">
        <g id="AmpolCard-Icons" transform="translate(-61.000000, -430.000000)">
            <g id="Icons/Bell" transform="translate(60.000000, 430.000000)">
                <rect id="Rectangle" x="0" y="0" width="24" height="24"></rect>
                <path d="M12.0085987,22.5536069 C13.3299319,22.5536069 14.4090685,21.67168 14.4448964,20.736 L9.57660036,20.736 C9.61352181,21.2286454 9.87896228,21.685176 10.3089228,21.99552 C10.7826112,22.3569773 11.3855763,22.5549579 12.0085987,22.5536069 Z M22.5477359,19.37792 C22.8863553,19.5208876 23.0659397,19.8566527 22.9776707,20.18176 C22.8883086,20.5188674 22.5486196,20.755197 22.1607945,20.75008 L16.1961645,20.75008 C16.1617697,22.79808 14.3474445,24 12.0544584,24 C9.76147236,24 7.84252966,22.79424 7.80813487,20.75008 L1.83777243,20.75008 C1.45048058,20.7545922 1.11157569,20.5183938 1.02232926,20.18176 C0.934060306,19.8566527 1.11364469,19.5208876 1.45226415,19.37792 C1.53395178,19.33056 2.14875866,18.94528 2.76499866,17.78048 C3.89572741,15.64288 4.13362472,12.63104 4.13362472,10.48448 C4.13593026,7.71636616 5.95231284,5.20577967 8.77692148,4.06656 L8.77692148,2.38208 C8.78122083,0.85632 10.1684774,0 11.8738858,0 L12.1261142,0 C13.8315226,0 15.2173461,0.85632 15.2173461,2.38208 L15.2173461,4.06272 C18.0337317,5.19677594 19.8500858,7.69449554 19.8649422,10.45376 L19.8649422,10.48064 C19.8649422,12.63104 20.1028395,15.64288 21.2335682,17.77664 C21.4566378,18.2155536 21.7459484,18.6251179 22.093438,18.99392 C22.2254714,19.1390689 22.3782003,19.2681645 22.5477359,19.37792 L22.5477359,19.37792 Z M15.118461,18.9184 L19.887872,18.9184 C19.7545922,18.7328 19.6184462,18.5216 19.4823001,18.2784 C18.4504564,16.4608 17.9245027,13.87136 17.9216365,10.58432 L17.9216365,10.55872 C17.954869,8.65207508 16.8350385,6.87742236 14.9916551,5.91542848 C13.1482716,4.95343461 10.8674927,4.95343461 9.02410922,5.91542848 C7.18072577,6.87742236 6.06089525,8.65207508 6.09412779,10.55872 C6.09412779,13.85984 5.56960723,16.45824 4.53346416,18.28096 C4.41112115,18.5003387 4.27623015,18.7139541 4.12932537,18.92096 L15.118461,18.9184 Z M13.5176701,3.84 L13.5176701,2.78272 C13.5176701,2.15168 12.8956977,1.6384 12.1304136,1.6384 L11.8867838,1.6384 C11.5243058,1.63543644 11.174037,1.75526909 10.9065323,1.97376 C10.6500111,2.18060694 10.5023698,2.47405764 10.4995273,2.78272 L10.4995273,3.84 C11.4966837,3.67105384 12.5205137,3.67105384 13.5176701,3.84 L13.5176701,3.84 Z" id="Shape" fill="#000000" fill-rule="nonzero"></path>
            </g>
        </g>
    </g>
</svg>