<?xml version="1.0" encoding="UTF-8"?>
<svg width="24px" height="24px" viewBox="0 0 24 24" version="1.1" xmlns="http://www.w3.org/2000/svg" xmlns:xlink="http://www.w3.org/1999/xlink">
    <title>Icons/Help/Action Copy</title>
    <g id="Project-Connect-[WIP]" stroke="none" stroke-width="1" fill="none" fill-rule="evenodd">
        <g id="AmpolCard-Icons" transform="translate(-564.000000, -430.000000)">
            <g id="Icons/Help/Action-Copy" transform="translate(564.000000, 430.000000)">
                <path d="M12,1 C15.048155,1 17.8109169,2.12689301 19.8095567,3.95897955 C21.775325,5.76093382 23,8.24779304 23,11 C23,13.2318092 22.1948034,15.2905146 20.8411342,16.9493376 L20.8411342,16.9493376 L22.4627534,22.3556278 L16.5095114,20.1234641 C15.1320982,20.6873567 13.6058821,21 12,21 C8.95184502,21 6.18908312,19.873107 4.19044325,18.0410205 C2.22467496,16.2390662 1,13.752207 1,11 C1,8.24779304 2.22467496,5.76093382 4.19044325,3.95897955 C6.18908312,2.12689301 8.95184502,1 12,1 Z" id="Oval-2" stroke="#000000" stroke-width="2"></path>
                <g id="Group" transform="translate(10.000000, 6.000000)">
                    <circle id="Oval" fill="#000000" cx="2" cy="10.5382973" r="1"></circle>
                    <path d="M0,0.538297308 C3,-0.798688666 5,0.538297308 5,2.53829731 C5,4.53829731 3,5.53829731 1,5.53829731" id="Path-2" stroke="#000000" stroke-width="2"></path>
                    <rect id="Rectangle" fill="#000000" x="1" y="4.53829731" width="2" height="4"></rect>
                </g>
            </g>
        </g>
    </g>
</svg>