<?xml version="1.0" encoding="UTF-8"?>
<svg width="24px" height="24px" viewBox="0 0 24 24" version="1.1" xmlns="http://www.w3.org/2000/svg" xmlns:xlink="http://www.w3.org/1999/xlink">
    <title>ic_Calender</title>
    <g id="Project-Connect-[WIP]" stroke="none" stroke-width="1" fill="none" fill-rule="evenodd">
        <g id="AmpolCard-Icons" transform="translate(-564.000000, -333.000000)">
            <g id="ic_Calender" transform="translate(564.000000, 333.000000)">
                <line x1="3" y1="9" x2="21" y2="9" id="Line-9" stroke="#000000" stroke-width="2" stroke-linecap="square"></line>
                <polyline id="Line-10" stroke="#000000" stroke-width="2" stroke-linecap="round" points="7 3 7 4.93072534 7 6"></polyline>
                <polyline id="Line-10" stroke="#000000" stroke-width="2" stroke-linecap="round" points="17 3 17 4.93072534 17 6"></polyline>
                <line x1="3" y1="5" x2="3" y2="21" id="Line-8" stroke="#000000" stroke-width="2" stroke-linecap="square"></line>
                <line x1="21" y1="5" x2="21" y2="21" id="Line-8" stroke="#000000" stroke-width="2" stroke-linecap="square"></line>
                <line x1="12" y1="-4" x2="12" y2="14" id="Line-8" stroke="#000000" stroke-width="2" stroke-linecap="square" transform="translate(12.000000, 5.000000) scale(1, -1) rotate(90.000000) translate(-12.000000, -5.000000) "></line>
                <line x1="12" y1="12" x2="12" y2="30" id="Line-8" stroke="#000000" stroke-width="2" stroke-linecap="square" transform="translate(12.000000, 21.000000) scale(1, -1) rotate(90.000000) translate(-12.000000, -21.000000) "></line>
                <rect id="Rectangle" stroke="#000000" fill="#000000" x="6.5" y="12.5" width="1" height="1"></rect>
                <rect id="Rectangle" stroke="#000000" fill="#000000" x="6.5" y="16.5" width="1" height="1"></rect>
                <rect id="Rectangle" stroke="#000000" fill="#000000" x="11.5" y="16.5" width="1" height="1"></rect>
                <rect id="Rectangle" stroke="#000000" fill="#000000" x="16.5" y="16.5" width="1" height="1"></rect>
                <rect id="Rectangle" stroke="#000000" fill="#000000" x="11.5" y="12.5" width="1" height="1"></rect>
                <rect id="Rectangle" stroke="#000000" fill="#000000" x="16.5" y="12.5" width="1" height="1"></rect>
                <rect id="Rectangle" x="0" y="0" width="24" height="24"></rect>
            </g>
        </g>
    </g>
</svg>