<?xml version="1.0" encoding="UTF-8"?>
<svg width="24px" height="24px" viewBox="0 0 24 24" version="1.1" xmlns="http://www.w3.org/2000/svg" xmlns:xlink="http://www.w3.org/1999/xlink">
    <title>Icons/See/Inactive Copy</title>
    <g id="Project-Connect-[WIP]" stroke="none" stroke-width="1" fill="none" fill-rule="evenodd">
        <g id="AmpolCard-Icons" transform="translate(-276.000000, -333.000000)">
            <g id="Icons/See/Inactive-Copy" transform="translate(276.000000, 333.000000)">
                <rect id="Rectangle" x="0" y="0" width="24" height="24"></rect>
                <path d="M7.10876657,5.52155311 L8.53781638,6.95159732 C8.40383281,7.04643832 8.27283903,7.14741744 8.14522204,7.2545347 L7.94565223,7.42962222 L2.959,12 L7.94565223,16.5703778 C10.1740389,18.6130656 13.5602309,18.6714281 15.854778,16.7454653 L16.0543478,16.5703778 L17.151,15.5645471 L18.566,16.9795471 L17.405797,18.0446861 C14.41674,20.784655 9.86531227,20.846927 6.80523837,18.2315021 L6.59420297,18.0446861 L0,12 L6.59420297,5.95531394 C6.76103406,5.80238544 6.93273225,5.6577985 7.10876657,5.52155311 Z M17.1947616,5.76849788 L17.405797,5.95531394 L24,12 L20.042,15.6275471 L18.626,14.2115471 L21.04,12 L16.0543478,7.42962222 C14.500249,6.00503166 12.3830163,5.54557817 10.4656779,6.05126176 L8.89266394,4.47901166 C11.6179558,3.33098807 14.8457542,3.76081681 17.1947616,5.76849788 Z M10.8251854,9.23875989 L14.7612201,13.1748614 C14.3041123,14.2478125 13.2398976,15 12,15 C10.3431458,15 9,13.6568542 9,12 C9,10.7600844 9.75220944,9.69585673 10.8251854,9.23875989 Z" id="Combined-Shape" fill="#000000" fill-rule="nonzero"></path>
                <polygon id="Line" fill="#000000" fill-rule="nonzero" transform="translate(12.501248, 11.501248) rotate(-2.862405) translate(-12.501248, -11.501248) " points="3.02387342 2.51676058 4.50694498 1.17493393 21.9786219 20.4857347 20.4955503 21.8275614"></polygon>
            </g>
        </g>
    </g>
</svg>